<svg width="15" height="21" viewBox="0 0 15 21" fill="none" xmlns="http://www.w3.org/2000/svg">
<path d="M7.55144 0C7.71143 0.0330878 7.87141 0.0661757 8.03139 0.0992636C10.1432 0.595581 11.583 2.38233 11.615 4.66539C11.647 5.52567 11.615 6.41904 11.615 7.27933C11.615 7.80873 11.199 8.13961 10.7511 7.97417C10.4631 7.87491 10.3031 7.61021 10.3031 7.27933C10.3031 6.41904 10.3031 5.52567 10.3031 4.66539C10.3031 3.24261 9.47123 2.05145 8.19137 1.55513C6.1756 0.76102 3.90385 2.31615 3.87185 4.56612C3.83986 5.52567 3.87185 6.45213 3.87185 7.41168C3.87185 7.74256 3.71187 7.97417 3.4239 8.07343C3.16793 8.1727 2.87996 8.10652 2.71998 7.87491C2.62399 7.74256 2.56 7.57712 2.56 7.44477C2.56 6.48522 2.528 5.52567 2.56 4.59921C2.65599 2.24997 4.3198 0.330878 6.55955 0.0330878C6.59155 0.0330878 6.62355 0 6.65554 0C6.94351 0 7.26348 0 7.55144 0Z" fill="#EE6C4D"/>
<path d="M7.10321 9.33077C8.79903 9.33077 10.5268 9.33077 12.2226 9.33077C13.1825 9.33077 13.9505 9.95944 14.1424 10.919C14.1744 11.0844 14.2064 11.283 14.2064 11.4484C14.2064 13.5991 14.2064 15.7498 14.2064 17.9336C14.2064 19.191 13.3745 20.0512 12.1587 20.0512C8.76703 20.0512 5.37541 20.0512 2.01578 20.0512C1.05588 20.0512 0.287968 19.4226 0.0639929 18.4961C0.0319965 18.3307 0 18.1652 0 17.9998C0 15.816 0 13.6322 0 11.4153C0 10.3565 0.671926 9.56239 1.66382 9.39695C1.7918 9.36386 1.95178 9.36386 2.07977 9.36386C3.74359 9.33077 5.4394 9.33077 7.10321 9.33077ZM7.10321 10.6874C5.4074 10.6874 3.74359 10.6874 2.04777 10.6874C1.53583 10.6874 1.27986 10.919 1.27986 11.4815C1.27986 13.6322 1.27986 15.7498 1.27986 17.9005C1.27986 18.463 1.53583 18.6946 2.04777 18.6946C5.4074 18.6946 8.76703 18.6946 12.1267 18.6946C12.6386 18.6946 12.8946 18.4299 12.8946 17.9005C12.8946 15.7498 12.8946 13.6322 12.8946 11.4815C12.8946 10.919 12.6386 10.6874 12.1267 10.6874C10.4628 10.6874 8.79903 10.6874 7.10321 10.6874Z" fill="#EE6C4D"/>
<path d="M6.46313 14.691C6.46313 14.4925 6.46313 14.2609 6.46313 14.0623C6.46313 13.6984 6.7511 13.4337 7.10306 13.4337C7.45503 13.4337 7.74299 13.6984 7.74299 14.0623C7.74299 14.5256 7.74299 14.9557 7.74299 15.4189C7.74299 15.7829 7.45503 16.0807 7.10306 16.0807C6.7511 16.0807 6.46313 15.7829 6.46313 15.4189C6.46313 15.1542 6.46313 14.9226 6.46313 14.691Z" fill="#EE6C4D"/>
</svg>
