<svg width="24" height="23" viewBox="0 0 24 23" fill="none" xmlns="http://www.w3.org/2000/svg">
<path d="M23.7772 14.2537C23.4895 14.8611 23.2018 14.957 22.5304 14.7652C22.0829 14.6374 21.6673 14.4775 21.2197 14.3496C20.7402 14.1898 20.4844 13.7742 20.6443 13.3266C20.7722 12.8791 21.2197 12.6873 21.6993 12.8471C22.1148 12.975 22.5304 13.1348 22.978 13.2627C23.3297 13.3586 23.5854 13.5504 23.7452 13.9021C23.7772 13.998 23.7772 14.1259 23.7772 14.2537Z" fill="#EE6C4D"/>
<path d="M11.8849 1.24249C12.6521 1.27446 13.2276 1.62612 13.5792 2.29746C14.1227 3.38439 14.6661 4.5033 15.2096 5.59023C15.2736 5.75008 15.3695 5.81401 15.5613 5.84598C16.808 6.00583 18.0229 6.19764 19.2696 6.38945C20.0049 6.51733 20.5164 6.93292 20.7402 7.6682C20.964 8.40348 20.8041 9.04285 20.2607 9.55435C19.3655 10.4175 18.5024 11.2807 17.6073 12.1438C17.4794 12.2397 17.4474 12.3676 17.4794 12.5274C17.7032 13.7422 17.895 14.989 18.1188 16.2038C18.2466 16.9391 17.9909 17.5785 17.3835 18.0261C16.7761 18.4736 16.1047 18.5056 15.4334 18.1859C14.3784 17.6424 13.3235 17.067 12.2685 16.5235C12.0127 16.3956 11.8209 16.3956 11.5972 16.5235C10.5742 17.067 9.55116 17.6105 8.49619 18.1539C7.79288 18.5056 7.12154 18.5056 6.48217 18.058C5.90673 17.6424 5.61901 17.035 5.71492 16.3317C5.81082 15.6923 5.9387 15.053 6.0346 14.4456C6.13051 13.8062 6.25838 13.1668 6.35429 12.4955C6.35429 12.3996 6.32232 12.3037 6.25838 12.2397C5.36326 11.3446 4.43617 10.4814 3.54105 9.58632C2.70986 8.75513 2.83774 7.38048 3.82876 6.74111C4.08451 6.58126 4.4042 6.48536 4.69192 6.42142C5.87476 6.22961 7.08957 6.06976 8.30438 5.90992C8.46422 5.87795 8.56013 5.81401 8.62407 5.68614C9.16753 4.56724 9.711 3.4803 10.2545 2.3614C10.5742 1.62612 11.1496 1.27446 11.8849 1.24249Z" fill="#EE6C4D"/>
<path d="M0.983665 14.8611C0.440197 14.8611 0.12051 14.6054 0.0246041 14.2537C-0.071302 13.902 0.12051 13.5184 0.472166 13.3905C1.07957 13.1348 1.65501 12.943 2.26241 12.7831C2.5821 12.6872 2.96572 12.911 3.0936 13.2627C3.25344 13.6143 3.15754 14.0619 2.83785 14.1898C2.19847 14.4775 1.49516 14.6693 0.983665 14.8611Z" fill="#EE6C4D"/>
<path d="M18.0868 2.87291C17.8631 2.87291 17.6393 2.74504 17.4794 2.48929C17.3196 2.23354 17.3196 1.94582 17.4794 1.69007C17.7991 1.21054 18.1508 0.731011 18.5024 0.283449C18.7582 -0.0362374 19.2377 -0.068206 19.5574 0.155575C19.8771 0.379356 19.973 0.858886 19.7492 1.17857C19.4295 1.6581 19.0779 2.13763 18.7262 2.61716C18.6303 2.80898 18.4065 2.87291 18.0868 2.87291Z" fill="#EE6C4D"/>
<path d="M5.74702 2.8729C5.3634 2.8729 5.17159 2.77699 5.01175 2.55321C4.69206 2.10565 4.37237 1.69006 4.05268 1.2425C3.79694 0.890839 3.86087 0.411309 4.21253 0.15556C4.56418 -0.10019 5.04371 -0.0362525 5.33143 0.315403C5.65112 0.762965 5.97081 1.21053 6.29049 1.65809C6.4823 1.91384 6.4823 2.20156 6.32246 2.48927C6.16262 2.74502 5.93884 2.8729 5.74702 2.8729Z" fill="#EE6C4D"/>
<path d="M12.6841 21.063C12.6841 21.3188 12.6841 21.5745 12.6841 21.8623C12.6841 22.3098 12.3325 22.6615 11.8849 22.6615C11.4374 22.6615 11.1177 22.3098 11.0857 21.8623C11.0857 21.3508 11.0857 20.8073 11.0857 20.2958C11.0857 19.8482 11.4374 19.4966 11.853 19.4966C12.3005 19.4966 12.6522 19.8482 12.6522 20.3278C12.7161 20.5196 12.6841 20.8073 12.6841 21.063Z" fill="#EE6C4D"/>
</svg>
