<svg width="68" height="68" viewBox="0 0 68 68" fill="none" xmlns="http://www.w3.org/2000/svg">
<path d="M51.3917 22.5714C50.4753 21.5222 49.5191 20.5128 48.5429 19.5499C41.5038 12.5972 31.9878 6.95266 21.7546 7.28469C18.7132 7.3843 15.6452 8.04836 12.9956 9.58235C4.66165 14.4234 5.9765 25.2941 9.52259 32.7382C13.6199 41.3312 20.6324 48.3835 28.6409 53.4171C33.0304 56.1796 37.805 58.2913 42.7722 59.7655C46.7433 60.9476 51.1527 61.3527 54.8581 59.1546C59.2277 56.5648 60.9476 51.4316 61.1999 46.5905C61.6648 37.6257 57.2089 29.2253 51.3917 22.5714Z" fill="#FFB657"/>
<path d="M50.4031 17.6874C41.8833 9.28755 32.0207 4.64766 22.6247 4.64766C22.3102 4.64766 22.0024 4.65407 21.6909 4.66057L21.6709 4.66096L21.6684 4.66105C17.8693 4.78813 14.5025 5.67809 11.6804 7.31087L11.6801 7.31102C7.02383 10.0146 4.78234 14.3385 4.26293 19.1417C3.74419 23.9385 4.941 29.217 7.15744 33.8669C11.2266 42.4055 18.1741 49.9366 27.2464 55.6385C31.7514 58.4708 36.7287 60.7094 42.0315 62.2816C44.4168 62.9898 46.6741 63.3523 48.7356 63.3523C51.517 63.3523 54.0298 62.7004 56.2085 61.412L56.2086 61.4119C60.7913 58.6988 63.4893 53.4668 63.8369 46.7271C64.3988 35.8516 58.4475 26.6372 53.3819 20.8461L53.3818 20.846C52.4425 19.7734 51.443 18.7072 50.4031 17.6874ZM50.4031 17.6874C50.4032 17.6875 50.4033 17.6876 50.4034 17.6877L50.263 17.8301L50.403 17.6873C50.4031 17.6873 50.4031 17.6873 50.4031 17.6874ZM28.7476 53.2479L28.7476 53.2479C20.7707 48.23 13.781 41.2042 9.70331 32.6523C7.94047 28.9516 6.7368 24.4072 7.00385 20.1968C7.27047 15.9933 9.00023 12.1347 13.0961 9.75545C15.7095 8.24249 18.7425 7.58365 21.7603 7.48469C21.7607 7.48468 21.761 7.48467 21.7613 7.48466L21.7775 7.4843C22.0637 7.47779 22.3412 7.47148 22.6247 7.47148C32.4525 7.47148 41.5822 12.958 48.4093 19.6924C49.3822 20.6521 50.3284 21.6512 51.248 22.7031L51.3985 22.5715L51.248 22.7031C57.0477 29.3371 61.4614 37.6882 61.007 46.5802C60.7561 51.3932 59.0481 56.4427 54.7633 58.9825C52.8875 60.0897 50.8324 60.5285 48.729 60.5285C46.7553 60.5285 44.7432 60.1415 42.8293 59.5739C37.8784 58.1045 33.1207 56.0001 28.7476 53.2479Z" fill="#AC562A" stroke="#AC562A" stroke-width="0.4"/>
<path d="M58.6637 40.7653C57.865 41.9859 57.4688 43.5773 56.3569 44.5806C54.8553 45.9419 53.2003 44.6765 52.6827 43.0915C51.9095 40.7397 52.1778 38.1961 52.6635 35.8124C53.1427 33.4413 53.6859 30.9681 54.6891 28.7632C54.8361 28.4373 55.0022 28.0922 54.9831 27.7343C54.9703 27.3892 54.7914 27.0761 54.6125 26.7821C53.9862 25.7468 53.2833 24.7562 52.5101 23.8231C52.2034 23.4588 51.8328 23.069 51.3535 23.0626C50.6378 23.0498 50.3056 23.8039 50.1075 24.3727C49.0595 27.4659 47.871 30.3482 45.89 32.9748C45.2638 33.8056 44.1967 34.6556 43.2829 33.7417C42.6822 33.141 42.4522 32.1568 42.2797 31.3579C41.8835 29.4982 41.8068 27.549 41.8515 25.6509C41.8515 25.5486 41.8579 25.4464 41.8643 25.3441C41.9857 22.4363 42.6631 19.4581 44.12 16.921C44.382 16.4608 44.2798 15.8793 43.858 15.5597C42.7525 14.7353 41.6343 13.9748 40.4968 13.2782C39.909 12.9139 39.1485 13.2079 38.9377 13.8853C38.2859 15.9496 37.3849 17.9946 36.3369 19.8863C35.7171 21.0047 34.471 23.7848 32.8991 23.6825C32.4326 23.6505 32.0684 23.2607 31.8703 22.8389C30.03 18.851 30.1833 13.5913 31.4933 9.46923C31.538 9.33502 31.4613 9.19442 31.3271 9.15607C25.0649 7.33468 19.5999 7.00003 14.3999 9.4C14.2657 9.47669 13.2766 9.86573 13.1999 9.99994C11.6407 12.9973 11.4221 16.1477 11.8247 19.586C12.3423 24.0723 14.0804 28.1497 16.0358 32.176C21.7293 43.8968 32.2026 51.9045 44.3564 56.0586C46.6888 56.8575 49.1873 57.3751 51.6602 57.1451C53.9607 56.9278 55.7105 56.4545 57.7489 55.4C57.8895 55.3297 58.5679 54.5248 58.6446 54.3906C60.8108 50.7414 61.4179 46.108 60.5999 41.1487C60.4402 40.1901 60.0376 38.6755 58.6637 40.7653Z" fill="#FFCD84"/>
<path d="M18.2152 9.50948C15.9508 11.5681 15.8644 14.3771 17.0133 17.0532C17.4781 18.1224 18.2484 19.0786 19.291 19.59C19.7027 19.7892 20.1808 19.9153 20.6125 19.7692C21.1238 19.59 21.4558 19.0653 21.6086 18.5341C22.0203 17.1329 21.509 15.6321 21.25 14.2509C21.0972 13.4208 21.0109 12.5177 21.2367 11.6942C21.4558 10.8907 22.3058 10.2067 22.3191 9.37003C22.3258 8.87862 22.0203 8.36065 21.5289 8.2544C20.4133 8.0087 19.1914 8.61964 18.2152 9.50948Z" fill="#FFDBAB"/>
</svg>
