<svg width="68" height="68" viewBox="0 0 68 68" fill="none" xmlns="http://www.w3.org/2000/svg">
<path d="M47.9786 32.9974C48.4103 32.8845 48.8486 33.1567 48.9548 33.595L49.6587 36.5036C49.765 36.9352 49.4993 37.3802 49.0677 37.4864C48.6361 37.5993 48.1978 37.327 48.0915 36.8888L47.3876 33.9802C47.2814 33.5485 47.547 33.1036 47.9786 32.9974ZM26.1642 11.7274C25.9185 11.3423 26.0314 10.8442 26.39 10.5985L28.8735 8.95829C29.2521 8.71259 29.7501 8.82548 29.9958 9.19071C30.2415 9.57587 30.1286 10.0739 29.77 10.3196L27.2864 11.9599C26.9146 12.2122 26.4165 12.0993 26.1642 11.7274Z" fill="white"/>
<path fill-rule="evenodd" clip-rule="evenodd" d="M38.993 21.8955C36.119 21.248 33.0347 21.7805 30.5071 23.4946C34.3122 22.2196 38.6883 23.1028 41.7165 26.1641C45.9797 30.4739 45.9797 37.493 41.7165 41.8028C41.2051 42.3207 40.6473 42.7789 40.0563 43.1707C41.6168 42.6329 43.0911 41.7563 44.3329 40.5012C47.3475 37.4537 48.2304 33.0514 46.9817 29.2104C43.5034 27.8387 40.6555 25.2154 38.993 21.8955Z" fill="#FFAE54"/>
<path d="M56.9298 46.6229L56.9296 46.6232C50.0189 59.3962 34.1663 64.0621 21.544 57.093C8.91716 50.1214 4.26228 34.1041 11.177 21.3237C15.7267 12.9145 24.1519 8.01345 32.9803 7.63639C34.1518 7.58635 35.0595 8.20359 35.6904 9.29824C36.3365 10.4194 36.6241 11.9587 36.4703 13.4147C36.4107 13.9786 36.3802 14.5509 36.3802 15.13C36.3802 17.8478 37.0515 20.4088 38.2374 22.6562C32.7481 20.5835 26.4315 22.8569 23.5474 28.1818C20.3876 34.0159 22.514 41.3666 28.3072 44.5681C34.1077 47.7737 41.3969 45.6038 44.5592 39.7651L44.5597 39.7642C46.3292 36.4896 46.4377 32.7365 45.1672 29.5077C47.3751 30.6407 49.878 31.28 52.5302 31.28C54.017 31.28 55.4585 31.0788 56.8281 30.7016C57.6106 30.486 58.4497 30.5784 59.0766 30.8994C59.6827 31.2098 60.0432 31.6975 60.0828 32.3268C60.3856 37.1344 59.3888 42.0823 56.9298 46.6229Z" fill="#FFCD84" stroke="#AC562A" stroke-width="2.04"/>
<path d="M44.6445 39.5008C46.2463 36.3712 46.3805 32.6922 45.075 29.46C47.3053 30.6227 49.8411 31.28 52.5303 31.28C53.9891 31.28 55.4042 31.0864 56.7507 30.7228C57.533 30.5115 58.3697 30.6074 58.994 30.9305C59.5976 31.2428 59.9559 31.7313 59.9939 32.3598C60.3944 38.988 58.3306 45.7374 53.8045 51.0963C52.6289 51.8222 51.7356 52.0441 51.1533 51.8928C50.2791 51.661 49.7924 51.1588 49.5354 50.5231C49.2609 49.8441 49.227 48.944 49.4505 47.9768L44.6445 39.5008ZM44.6445 39.5008C44.9831 39.3282 45.3599 39.1147 45.7771 38.8533L45.7784 38.8524C46.8708 38.1703 48.0722 38.1614 49.0811 38.6259C50.0644 39.0786 50.8329 39.9608 51.2056 41.0264C51.8849 42.9601 51.0053 44.644 50.3578 45.8835C50.3378 45.9217 50.3181 45.9595 50.2986 45.9969C49.9059 46.7506 49.5929 47.3638 49.4506 47.9768L44.6445 39.5008ZM31.8765 22.0984L31.8342 22.1059L31.7928 22.117C29.23 22.7977 27.1704 22.4709 25.5936 21.6313C24.0015 20.7835 22.823 19.3702 22.1208 17.7574C21.416 16.1388 21.2166 14.3767 21.521 12.8905C21.822 11.4208 22.5938 10.2853 23.7956 9.70855C26.9799 8.34742 30.3759 7.65261 33.7753 7.62521C34.7411 7.61743 35.5068 8.15062 36.0293 9.08786C36.5638 10.0466 36.7787 11.3438 36.5865 12.5491C36.4516 13.3946 36.3803 14.2602 36.3803 15.13C36.3803 17.873 37.0641 20.4562 38.2706 22.7185C36.2281 21.9262 34.0134 21.7194 31.8765 22.0984Z" fill="#AC562A" stroke="#AC562A" stroke-width="2.04"/>
<circle cx="14.2797" cy="27.88" r="1.36" fill="#AC562A"/>
<circle cx="34.0004" cy="51.6801" r="1.36" fill="#AC562A"/>
<circle cx="25.67" cy="52.8702" r="2.21" fill="#AC562A"/>
</svg>
