<svg width="30" height="39" viewBox="0 0 30 39" fill="none" xmlns="http://www.w3.org/2000/svg">
<path d="M1.875 0H28.125C28.6223 0 29.0992 0.19904 29.4508 0.553335C29.8025 0.907629 30 1.38815 30 1.8892V38.0542C30.0002 38.2231 29.9555 38.389 29.8704 38.5346C29.7854 38.6801 29.6632 38.8 29.5165 38.8818C29.3699 38.9636 29.2041 39.0043 29.0365 38.9996C28.869 38.995 28.7057 38.9451 28.5637 38.8552L15 30.2839L1.43625 38.8533C1.29444 38.9431 1.13135 38.993 0.963941 38.9977C0.796531 39.0025 0.630912 38.962 0.484303 38.8804C0.337695 38.7988 0.21545 38.6792 0.13028 38.5339C0.0451102 38.3886 0.000124633 38.223 0 38.0542V1.8892C0 1.38815 0.197544 0.907629 0.549175 0.553335C0.900806 0.19904 1.37772 0 1.875 0Z" fill="#EE6C4D"/>
</svg>
