<svg width="113" height="121" viewBox="0 0 113 121" fill="none" xmlns="http://www.w3.org/2000/svg">
<path opacity="0.8" d="M42.5244 16.3618C42.5244 25.1382 49.6623 32.2949 58.4575 32.2949C67.2339 32.2949 74.3906 25.157 74.3906 16.3618C74.3906 7.56658 67.2339 0.428711 58.4575 0.428711C49.6811 0.428711 42.5244 7.56658 42.5244 16.3618ZM70.8687 16.3618C70.8687 23.123 65.3882 28.6035 58.627 28.6035C51.8658 28.6035 46.3853 23.123 46.3853 16.3618C46.3853 9.60059 51.8658 4.12006 58.627 4.12006C65.3882 4.12006 70.8687 9.60059 70.8687 16.3618Z" fill="#EE6C4D"/>
<path d="M58.1941 25.7035H59.5878C60.0021 25.7035 60.36 25.3645 60.36 24.9313V23.6318C61.49 23.4623 62.4693 23.1233 63.298 22.5771C64.6163 21.7108 65.2755 20.5243 65.3131 18.9988C65.332 18.0571 65.0683 17.2473 64.5221 16.5881C63.637 15.5334 62.2621 14.8743 60.3788 14.6106V11.9739C60.7178 12.1246 61.038 12.3318 61.3393 12.5954C61.5276 12.7461 61.7536 12.8403 61.9985 12.8403C62.2056 12.8403 62.4693 12.7084 62.4693 12.7084L64.0325 11.7291C64.2396 11.5973 64.3526 11.4278 64.3526 11.2018C64.3526 11.0323 64.2773 10.8816 64.1455 10.7497C63.1661 9.63858 61.9043 8.94174 60.36 8.67807V7.19023C60.36 6.7759 60.021 6.41806 59.5878 6.41806H58.1941C57.7798 6.41806 57.4219 6.75706 57.4219 7.19023V8.6404C56.6874 8.73457 56.0471 8.92291 55.4633 9.18657C53.5799 10.0529 52.6571 11.3336 52.6759 13.0286C52.6947 13.8761 52.9396 14.6106 53.4293 15.2509C54.2579 16.3433 55.5763 17.0401 57.4219 17.3226V20.6185C56.6309 20.336 55.8776 19.8086 55.1619 19.0553C55.0113 18.8481 54.8041 18.754 54.5404 18.754L54.1261 18.867L52.6947 19.7145C52.4499 19.8651 52.3369 20.0346 52.3369 20.2795L52.5064 20.6938C52.8831 21.2211 53.3728 21.7108 54.0131 22.1816C55.0301 22.9538 56.1601 23.4435 57.4408 23.6506V24.9502C57.4219 25.3645 57.7798 25.7035 58.1941 25.7035ZM60.36 17.6805C61.1133 17.9253 61.5088 18.3585 61.49 18.9988C61.49 19.6015 61.2075 20.0723 60.6613 20.3925L60.36 20.562V17.6805ZM56.4991 13.0474C56.4991 12.5766 56.7628 12.1999 57.3089 11.9551L57.4219 11.9174V14.2528C56.8193 14.0079 56.4991 13.5936 56.4991 13.0474Z" fill="white"/>
<path d="M56.499 13.0468C56.499 13.6118 56.8192 14.0073 57.4219 14.2521V11.8979L57.3089 11.9356C56.7627 12.1993 56.499 12.5759 56.499 13.0468Z" fill="#3D5A80" fill-opacity="0.9"/>
<path d="M60.3594 20.5809L60.6607 20.4114C61.2069 20.0724 61.4894 19.6204 61.4894 19.0177C61.4894 18.3774 61.1127 17.9254 60.3594 17.6994V20.5809Z" fill="#3D5A80" fill-opacity="0.9"/>
<path d="M46.3857 16.3617C46.3857 23.1229 51.8663 28.6034 58.6275 28.6034C65.3887 28.6034 70.8692 23.1229 70.8692 16.3617C70.8692 9.60049 65.3887 4.11996 58.6275 4.11996C51.8663 4.11996 46.3857 9.60049 46.3857 16.3617ZM60.3601 7.18981V8.67765C61.9045 8.94132 63.1663 9.63816 64.1457 10.7493C64.2963 10.8812 64.3528 11.0318 64.3528 11.2013C64.3528 11.4085 64.2398 11.578 64.0327 11.7287L62.4695 12.708C62.4695 12.708 62.187 12.8398 61.9987 12.8398C61.7538 12.8398 61.5278 12.7645 61.3395 12.595C61.0381 12.3313 60.718 12.1242 60.379 11.9735V14.6102C62.2623 14.8739 63.6372 15.533 64.5223 16.5877C65.0685 17.2469 65.3322 18.0567 65.3133 18.9984C65.2757 20.5239 64.6165 21.7104 63.2982 22.5767C62.4695 23.1229 61.4902 23.4807 60.3601 23.6314V24.9309C60.3601 25.3452 60.0211 25.7031 59.588 25.7031H58.1943C57.78 25.7031 57.4221 25.3641 57.4221 24.9309V23.6314C56.1603 23.4242 55.0115 22.9534 53.9944 22.1624C53.3729 21.6916 52.8644 21.1831 52.4878 20.6745L52.3183 20.2602C52.3183 20.0342 52.4313 19.8459 52.6761 19.6952L54.1074 18.8477L54.5218 18.7347C54.7855 18.7347 54.9926 18.8289 55.1433 19.036C55.859 19.8082 56.5935 20.3167 57.4033 20.5992V17.3222C55.5576 17.0397 54.2393 16.3429 53.4106 15.2505C52.9209 14.6102 52.6761 13.8568 52.6573 13.0282C52.6196 11.3332 53.5424 10.0337 55.4446 9.18616C56.0285 8.92249 56.6876 8.73415 57.4033 8.63999V7.18981C57.4033 6.77548 57.7423 6.41764 58.1755 6.41764H59.5691C60.0211 6.41764 60.3601 6.75664 60.3601 7.18981Z" fill="#3D5A80" fill-opacity="0.9"/>
<path opacity="0.8" d="M101.906 90.2265H111.248C111.719 90.2265 112.152 90.0381 112.491 89.718C112.83 89.379 112.999 88.9458 112.999 88.4749V64.613C112.999 64.1422 112.811 63.709 112.491 63.37C112.152 63.031 111.719 62.8615 111.248 62.8615H102.829C101.718 60.5261 100.306 58.3226 98.6294 56.2321C98.9308 55.4976 102.829 46.3822 105.711 40.6945C106.897 39.9977 92.7346 32.7657 81.1143 43.5572C74.7863 40.9582 67.6108 39.4704 60.0021 39.4704C34.7088 39.4704 14.218 55.6671 14.218 75.6494C14.218 76.1956 14.2368 76.7417 14.2745 77.2691C14.0485 78.1354 13.4647 78.9264 12.6172 79.5667C12.2593 79.8304 11.8261 80.0752 11.393 80.2636C11.5813 79.8681 11.6755 79.4349 11.6755 78.9829C11.6755 78.0601 11.2611 77.2314 10.602 76.6664C9.9428 76.0826 9.05763 75.7435 8.09713 75.7435C7.13662 75.7435 6.25145 76.0826 5.61111 76.6664C4.95194 77.2502 4.53761 78.0789 4.53761 78.9829C4.53761 79.4349 4.65061 79.8869 4.83894 80.2636C4.38694 80.0564 3.97261 79.8304 3.59594 79.5667C2.46593 78.7004 1.8256 77.5704 1.8256 76.3651H0.544922C0.544922 78.0412 1.44893 79.5291 2.82377 80.5649C4.19861 81.6007 6.06312 82.2223 8.09713 82.2223C10.1311 82.2223 11.9956 81.6007 13.3705 80.5649C13.7848 80.2447 14.1427 79.8681 14.4628 79.4726C15.4422 86.8176 19.2088 93.5223 24.9154 98.8898L23.1639 116.631C23.0697 117.554 23.6535 118.42 24.5387 118.665L30.8479 120.492C31.7331 120.755 32.6748 120.341 33.0891 119.531L39.1346 107.855C45.3873 110.397 52.4875 111.828 60.0021 111.828C67.0458 111.828 73.7316 110.567 79.7018 108.307L85.5025 119.531C85.9169 120.341 86.8585 120.755 87.7437 120.492L94.0341 118.665C94.9381 118.401 95.5031 117.554 95.4089 116.631L93.7704 100.058C97.1227 97.176 99.8724 93.8613 101.906 90.2265ZM9.75447 80.3766C9.34013 80.7532 8.7563 80.9792 8.09713 80.9792C7.43796 80.9792 6.85412 80.7344 6.43979 80.3766C6.02545 79.9999 5.79945 79.5291 5.79945 79.0017C5.79945 78.4744 6.04428 77.9847 6.43979 77.6269C6.85412 77.2502 7.43796 77.0242 8.09713 77.0242C8.7563 77.0242 9.34013 77.2691 9.75447 77.6269C10.1688 78.0036 10.4136 78.4744 10.4136 79.0017C10.3948 79.5291 10.1688 79.9999 9.75447 80.3766ZM80.7 50.2431L78.3835 55.6483C78.3082 55.8366 78.1386 56.0061 77.9503 56.0814C77.7431 56.1568 77.536 56.1568 77.3288 56.0814L74.6356 54.9326H74.6168L74.5791 54.9138L74.4096 54.8384C74.2401 54.7631 73.9765 54.6689 73.6186 54.5371C72.903 54.2923 71.8483 53.9344 70.5488 53.5954C67.9498 52.8986 64.3337 52.2206 60.5106 52.2206C56.7815 52.2206 52.996 52.8798 50.1145 53.5578C47.233 54.2358 45.2555 54.9514 45.1236 55.0079H45.1048L42.3551 55.9873C41.9408 56.1379 41.47 55.9308 41.3193 55.5164L39.2853 49.9983C39.1346 49.5839 39.3418 49.1131 39.7561 48.9624L42.5058 47.9454C42.6188 47.9077 44.7658 47.1167 48.0617 46.3069C51.3575 45.5159 55.7834 44.6872 60.4917 44.6872C65.1247 44.6872 69.2681 45.4782 72.3191 46.2881C75.3701 47.0791 77.3288 47.9266 77.536 48.0019L77.5737 48.0207L80.2668 49.1696C80.474 49.2637 80.6247 49.4144 80.7 49.6028C80.7753 49.8288 80.7753 50.0359 80.7 50.2431Z" fill="#EE6C4D"/>
<path d="M76.5557 49.3574C76.3297 49.2632 75.9907 49.1314 75.5764 48.9807C74.7289 48.6794 73.5424 48.2839 72.0545 47.8884C69.0977 47.0974 65.0296 46.3252 60.4908 46.3064C55.9708 46.3064 51.6579 47.0974 48.4374 47.8695C45.2169 48.6417 43.1075 49.4327 43.051 49.4515L41.0547 50.186L42.5425 54.1787L44.5389 53.4442H44.5577C44.8025 53.3501 46.7989 52.6532 49.7369 51.9375C52.6937 51.2407 56.5923 50.5627 60.5096 50.5627C64.54 50.5627 68.269 51.2784 70.9622 51.994C72.3182 52.3519 73.4105 52.7097 74.145 52.9734C74.5217 53.1052 74.8042 53.2182 75.0114 53.2936L75.1997 53.3689L75.2185 53.3877L75.2562 53.4066L77.2149 54.2352L78.891 50.3367L76.9324 49.508L76.8194 49.4704L76.5557 49.3574Z" fill="#3D5A80" fill-opacity="0.9"/>
<path d="M77.3289 56.063C77.5173 56.1571 77.7433 56.1571 77.9504 56.063C78.1388 55.9876 78.3083 55.837 78.3836 55.6298L80.7001 50.2246C80.7755 50.0363 80.7755 49.8103 80.7001 49.6031C80.6248 49.396 80.4741 49.2453 80.267 49.1699L77.5738 48.0211L77.5361 48.0023C77.3289 47.9269 75.3514 47.0983 72.3193 46.2884C69.2682 45.4786 65.1249 44.7064 60.4919 44.6876C55.7835 44.6876 51.3576 45.4974 48.0618 46.3073C44.7659 47.0983 42.6001 47.9081 42.5059 47.9458L39.7563 48.9628C39.3419 49.1135 39.1347 49.5843 39.2854 49.9986L41.3194 55.5168C41.4701 55.9311 41.9409 56.1383 42.3553 55.9876L45.1049 54.9706H45.1238C45.2556 54.9141 47.2331 54.2173 50.1146 53.5205C52.9962 52.8425 56.7817 52.1833 60.5107 52.1833C64.3527 52.1833 67.9499 52.8613 70.5489 53.5581C71.8484 53.916 72.9031 54.255 73.6188 54.4998C73.9766 54.6316 74.2403 54.7258 74.4098 54.8011L74.5793 54.8765L74.6169 54.8953H74.6358L77.3289 56.063ZM74.1461 53.012C73.4116 52.7483 72.3004 52.3905 70.9632 52.0326C68.2512 51.317 64.5222 50.6013 60.5107 50.6013C56.5933 50.6013 52.7137 51.2793 49.738 51.9761C46.8 52.673 44.8036 53.3886 44.5588 53.4828H44.5399L42.5436 54.2173L41.0558 50.2246L43.0521 49.4901C43.1086 49.4713 45.2179 48.6803 48.4385 47.9081C51.659 47.1359 55.9718 46.3449 60.4919 46.3449C65.0119 46.3449 69.0799 47.1359 72.0556 47.9269C73.5434 48.3224 74.7488 48.7179 75.5774 49.0193C75.9918 49.1699 76.3308 49.3018 76.5568 49.3959L76.8204 49.509L76.9334 49.5466L78.8921 50.3376L77.2159 54.255L75.2573 53.4263L75.2196 53.4075L75.2008 53.3886L75.0124 53.3133C74.8241 53.238 74.5228 53.1438 74.1461 53.012Z" fill="white"/>
</svg>
